<?xml version="1.0" standalone="no"?>
<!DOCTYPE svg PUBLIC "-//W3C//DTD SVG 20010904//EN"
 "http://www.w3.org/TR/2001/REC-SVG-20010904/DTD/svg10.dtd">
<svg version="1.0" xmlns="http://www.w3.org/2000/svg"
 width="512.000000pt" height="512.000000pt" viewBox="0 0 512.000000 512.000000"
 preserveAspectRatio="xMidYMid meet">
<metadata>
Created by potrace 1.14, written by Peter Selinger 2001-2017
</metadata>
<g transform="translate(0.000000,512.000000) scale(0.100000,-0.100000)"
fill="#000000" stroke="none">
<path d="M2379 5116 c-2 -2 -40 -6 -83 -10 -44 -4 -82 -8 -85 -10 -3 -2 -31
-7 -61 -11 -30 -3 -75 -11 -100 -17 -25 -5 -52 -11 -60 -13 -570 -122 -1120
-481 -1481 -965 -95 -127 -203 -304 -251 -410 -9 -19 -30 -64 -46 -100 -63
-140 -127 -342 -161 -510 -38 -190 -46 -274 -45 -520 0 -183 3 -241 19 -345 3
-16 7 -43 9 -60 54 -384 258 -845 516 -1170 255 -321 601 -591 950 -745 52
-23 104 -45 115 -50 86 -39 332 -110 460 -134 176 -33 267 -41 490 -41 201 0
318 8 429 31 11 2 35 7 51 10 593 106 1180 471 1557 969 112 148 248 380 307
525 12 30 26 64 32 75 21 44 80 230 103 322 24 96 47 230 65 368 9 74 7 503
-3 544 -3 14 -8 47 -11 75 -4 28 -17 103 -31 167 -139 661 -534 1237 -1106
1611 -173 114 -351 203 -533 268 -103 36 -86 31 -235 70 -119 31 -163 39 -345
66 -44 6 -460 15 -466 10z"/>
</g>
</svg>
